<svg xmlns="http://www.w3.org/2000/svg" width="20.997" height="14.701" viewBox="0 0 20.997 14.701">
  <g id="Y" transform="translate(-1613.003 0)">
    <path id="youtube" d="M20.565-3.782a2.63,2.63,0,0,0-1.851-1.851c-1.643-.45-8.216-.45-8.216-.45s-6.572,0-8.215.433A2.684,2.684,0,0,0,.433-3.782,27.718,27.718,0,0,0,0,1.269a27.616,27.616,0,0,0,.432,5.05A2.631,2.631,0,0,0,2.284,8.17c1.66.45,8.216.45,8.216.45s6.572,0,8.215-.433a2.631,2.631,0,0,0,1.851-1.851A27.727,27.727,0,0,0,21,1.286a26.311,26.311,0,0,0-.433-5.068ZM8.406,4.417v-6.3l5.465,3.148Zm0,0" transform="translate(1613.002 6.082)" fill="#fff"/>
  </g>
</svg>
