<svg xmlns="http://www.w3.org/2000/svg" xmlns:xlink="http://www.w3.org/1999/xlink" width="194.932" height="40.338" viewBox="0 0 194.932 40.338">
  <defs>
    <clipPath id="clip-path">
      <rect id="사각형_4" data-name="사각형 4" width="194.932" height="40.338" fill="none"/>
    </clipPath>
  </defs>
  <g id="logo" transform="translate(0 0)">
    <g id="마스크_그룹_1662" data-name="마스크 그룹 1662" transform="translate(0 0)" clip-path="url(#clip-path)">
      <path id="패스_5484" data-name="패스 5484" d="M124.767,27.54h4.308V5.022h-4.308ZM243.724,5.022V9.134H249.5V27.54h4.308V9.134h5.777V5.022Zm-25.456,0H213.96L206.813,27.54h4.308l1.616-5.091h6.95L221.3,27.54h4.308L218.464,5.022Zm-4.412,13.9,2.356-7.425,2.357,7.425Zm-73.032-14.2c-5.847,0-9.5,5.064-9.5,11.553s3.649,11.553,9.5,11.553,9.5-5.064,9.5-11.553-3.649-11.553-9.5-11.553m0,19.092c-3.222,0-5.189-3.3-5.189-7.539s1.967-7.539,5.189-7.539,5.189,3.3,5.189,7.539-1.967,7.539-5.189,7.539m-27.316-18.8H109.2V27.54h13.609V23.428h-9.3Zm51.2,14.951-7.93-14.951h-4.21V27.54h4.112V12.589l7.931,14.951h4.21V5.022h-4.112Zm30.938-2.125h9.4V13.735h-9.4v-4.6h10.183V5.022H191.344V27.54H206.03V23.428H195.652Zm43.459-.9c1.787-.608,3.341-2.108,3.341-5.8,0-4.535-3.51-6.119-6.266-6.119h-9.791V27.54H230.7V18.827h3.231c3.6,0,4.121.963,4.307,5.581.079,1.946.212,3.133.588,3.133h4.307a4.926,4.926,0,0,1-.783-2.643c-.071-2.4.177-7.009-3.243-7.952M235.866,15.3v0H230.7V9.134h5.482c.9,0,2.056.694,2.056,2.962a2.98,2.98,0,0,1-2.375,3.2M183.9,13.735h-7.637V5.022h-4.307V27.54h4.307V17.847H183.9V27.54h4.308V5.022H183.9Z" transform="translate(-64.653 -2.799)" fill="#fff" fill-rule="evenodd"/>
      <path id="패스_5485" data-name="패스 5485" d="M197.374,83.272c0,.608-.115,1.275-1.159,1.275s-1.159-.667-1.159-1.275V80.143H193.9v3.129a2.318,2.318,0,1,0,4.635,0V80.143h-1.159Zm-25.228-3.129H170.64v1.043h1.507v4.289h1.159V81.186h1.507V80.143h-2.666ZM151.2,83.033a3.18,3.18,0,0,0-1.808-.8c-1.454-.23-1.145-1.275-.116-1.275,1.115,0,1.043.811,1.043.811h1.159a1.994,1.994,0,0,0-2.086-1.739c-.118,0-.229.006-.335.015h-.013q-.145.013-.275.036l-.059.013c-.066.013-.13.027-.189.044-.035.009-.067.021-.1.032s-.078.025-.113.04-.087.037-.128.057l-.056.027c-.051.027-.1.055-.144.085l-.016.01a1.419,1.419,0,0,0-.574.787c0,.006,0,.012-.006.019-.011.038-.021.076-.029.113,0,.018-.007.035-.011.052s-.009.051-.013.076-.008.052-.011.078,0,.031,0,.046-.005.061-.007.091,0,.081,0,.118c0,.8.84,1.13,1.275,1.275a4.578,4.578,0,0,0,.491.106c.76.207,1.479.365,1.479.821,0,.667-.709.7-1.159.7-1.2,0-1.159-.927-1.159-.927h-1.159a2.091,2.091,0,0,0,2.318,1.855c1.26,0,2.315-.623,2.2-1.738a1.162,1.162,0,0,0-.393-.819m112.806-3.006a2.792,2.792,0,1,0,2.55,2.782,2.565,2.565,0,0,0-2.55-2.782m0,4.636c-.936,0-1.507-.83-1.507-1.854s.57-1.855,1.507-1.855,1.507.83,1.507,1.855-.571,1.854-1.507,1.854m-44.038-4.52h-2.434v5.331h2.434a2.318,2.318,0,0,0,2.318-2.318v-.7a2.318,2.318,0,0,0-2.318-2.318m1.159,2.877c0,1.044-.59,1.411-1.159,1.411H218.7V81.186h1.275a1.287,1.287,0,0,1,1.159,1.391Zm20.163,2.454h1.159V80.143h-1.159Z" transform="translate(-87.077 -47.381)" fill="#fff" fill-rule="evenodd"/>
      <rect id="사각형_3" data-name="사각형 3" width="150.384" height="0.783" transform="translate(44.547 28.38)" fill="#fff"/>
      <path id="패스_5486" data-name="패스 5486" d="M45.3,25.9c0-3.264-5.7-4.307-8.028-4.307h4.9c2.35,0,3.133.783,3.133.783V9.841s-.535.979-2.937.979H37.268C40.727,10.787,45.3,9.22,45.3,7.3V3.575A2.138,2.138,0,0,1,45.648,2.4H37.17c-4.243,0-5.581,4.536-5.581,6.07v-4.8c0-1.063.686-1.273,1.469-1.273H22.288c.783,0,1.469.21,1.469,1.273v4.8c0-1.534-1.338-6.07-5.581-6.07H9.7a2.142,2.142,0,0,1,.352,1.175V7.3c0,1.925,4.569,3.492,8.028,3.525H12.987c-2.4,0-2.937-.979-2.937-.979V22.373s.783-.783,3.133-.783h4.9c-2.33,0-8.028,1.044-8.028,4.307V39.6A2.143,2.143,0,0,1,9.7,40.779h6.813c3.2,0,3.525-7.852,3.525-8.322v6.071s.159,2.252-.951,2.252H36.26c-1.11,0-.951-2.252-.951-2.252V32.457c0,.47.326,8.322,3.525,8.322h6.814A2.139,2.139,0,0,1,45.3,39.6ZM31.953,32.164l-1.734.979-.587-1.567s-.035,1.8-.685,2.056a2.9,2.9,0,0,1-2.546,0c-.651-.26-.685-2.056-.685-2.056l-.587,1.567-1.734-.979a1.131,1.131,0,0,1,.363-.979,4.993,4.993,0,0,1,.6-.485,2.158,2.158,0,0,1-.113-.69,2.882,2.882,0,0,1,.294-.979l.783.979a2.619,2.619,0,0,1,.979-.2h2.741a2.619,2.619,0,0,1,.979.2l.783-.979a2.882,2.882,0,0,1,.294.979,2.151,2.151,0,0,1-.113.69,4.954,4.954,0,0,1,.6.485,1.131,1.131,0,0,1,.363.979M35.7,25.9s-2.637.472-3.035.588c.343,0,2.38-.049,3.231.587a2.106,2.106,0,0,1-1.175,1.567l-2.35-1.175s1.518,1.077,1.371,1.762a1.907,1.907,0,0,1-1.567.2c-.157-.045-2.154-.881-2.154-.881l-1.79-.881a2.221,2.221,0,0,1,.392-1.763,5.606,5.606,0,0,1,1.812-1.265,6.152,6.152,0,0,1,1.125-.3l-.783-.587a13.289,13.289,0,0,1-3.1.587,13.283,13.283,0,0,1-3.1-.587l-.783.587a6.151,6.151,0,0,1,1.125.3A5.612,5.612,0,0,1,26.722,25.9a2.223,2.223,0,0,1,.392,1.763l-1.791.881s-2,.836-2.154.881a1.907,1.907,0,0,1-1.567-.2c-.147-.685,1.371-1.762,1.371-1.762l-2.35,1.175a2.106,2.106,0,0,1-1.175-1.567c.851-.636,2.888-.587,3.231-.587-.4-.116-3.035-.588-3.035-.588l.979-4.5a3.42,3.42,0,0,1-2.35-.979C17.05,19.338,16.9,18.75,16.9,18.75l-2.154-.294A9.9,9.9,0,0,0,17,17.428,10.591,10.591,0,0,0,18.78,15.9a1.186,1.186,0,0,1,1.55.212c.3.286.416,1.064.685,1.567.391.728.832,1.175,1.469,1.175h1.077l.49.979-.685.392,1.371,2.154-.2-2.937,1.567-1.958-1.958.979-.783-1.567-4.112-1.86s-.157-1.328-.2-2.056c-.053-.993.89-1.179,1.762-1.664s1.782-1.273,2.252-1.273c1.42,0,4.6,3.916,4.6,3.916s3.182-3.916,4.6-3.916c.47,0,1.376.785,2.252,1.273s1.815.671,1.762,1.664c-.038.728-.2,2.056-.2,2.056l-4.112,1.86L31.2,18.457l-1.958-.979,1.567,1.958-.2,2.937,1.371-2.154-.685-.392.49-.979h1.077c.636,0,1.078-.447,1.469-1.175.27-.5.39-1.28.685-1.567a1.187,1.187,0,0,1,1.55-.212,10.6,10.6,0,0,0,1.782,1.533A9.912,9.912,0,0,0,40.6,18.457l-2.154.294s-.147.587-1.371,1.664a3.42,3.42,0,0,1-2.35.979Zm-14.2-9.1,1.86.979a.783.783,0,0,1-.979.49c-.655-.239-.881-1.469-.881-1.469m12.336,0s-.226,1.23-.881,1.469a.783.783,0,0,1-.979-.49Z" transform="translate(-5.742 -1.421)" fill="#fff" fill-rule="evenodd"/>
    </g>
  </g>
</svg>
